PathFileType	4	(X/Y/Z)	C:/Users/beibeiliu/ov580/test_trc\sequence.19_training_dense_left.trc
DataRate	CameraRate	NumFrames	NumMarkers	Units	OrigDataRate	OrigDataStartFrame	OrigNumFrames
120	120	12	19	mm	120	173	344
Frame#	Time	ThumbCMC			ThumbMCP			ThumbIP			ThumbTip			IndexMCP			IndexPIP			IndexTip			MiddleMCP			MiddlePIP			MiddleTip			RingMCP			RingPIP			RingTip			PinkyMCP			PinkyPIP			PinkyTip			BackHand1			BackHand2			BackHand3	
		X0	Y0	Z0	X1	Y1	Z1	X2	Y2	Z2	X3	Y3	Z3	X4	Y4	Z4	X5	Y5	Z5	X6	Y6	Z6	X7	Y7	Z7	X8	Y8	Z8	X9	Y9	Z9	X10	Y10	Z10	X11	Y11	Z11	X12	Y12	Z12	X13	Y13	Z13	X14	Y14	Z14	X15	Y15	Z15	X16	Y16	Z16	X17	Y17	Z17	X18	Y18	Z18	
172	1.43333	-215.133	17.1889	40.575	-203.942	-10.3017	42.7526	-203.321	-32.1049	30.6039	-200.486	-53.1784	28.5345	-213.73	-34.6514	5.84095	-227.56	-47.7995	27.2883	-228.995	-19.5707	37.4298	-238.277	-37.2189	2.86617	-242.928	-47.099	31.2493	-245.631	-14.0958	42.4743	-252.443	-36.0341	11.8813	-255.697	-29.5756	37.8788	-254.955	-3.06797	40.0573	-272.316	-23.6083	12.7813	-266.297	-16.1183	37.8712	-258.187	9.39513	40.8856	-249.98	12.0494	-2.78417	-255.719	37.6378	11.19	-230.574	27.2976	11.3811	
173	1.44167	-218.808	18.9554	43.1843	-207.842	-8.25454	42.6965	-199.138	-30.9324	35.1177	-199.829	-48.135	28.666	-210.837	-29.7025	6.03203	-224.161	-44.6657	28.7349	-232.99	-19.5601	36.3973	-232.371	-33.7076	2.48778	-241.376	-44.6361	30.4974	-243.507	-14.1786	43.4578	-248.118	-29.6274	7.42514	-257.203	-31.1164	33.7139	-249.951	-3.00327	41.2619	-265.47	-23.2124	10.8196	-263.736	-15.6147	34.9482	-258.907	9.37932	39.434	-246.327	18.9956	-0.632634	-253.235	37.4792	14.36	-223.86	29.1106	15.5213	
174	1.45	-221.946	20.9444	49.2222	-209.34	-3.51798	45.2937	-197.577	-24.8726	37.5544	-197.625	-40.0761	26.3574	-202.572	-19.5513	8.54561	-219.751	-40.8538	21.7674	-230.819	-17.6385	37.5968	-226.415	-26.62	0.330889	-239.093	-40.8945	24.8611	-246.375	-17.4651	40.4991	-246.994	-26.3742	3.27803	-249.631	-27.7752	30.7658	-251.555	-2.22807	38.9045	-262.614	-18.8624	6.39292	-260.772	-16.23	30.4681	-257.565	8.84269	36.9709	-247.459	24.3054	-1.15649	-256.371	43.8307	18.2226	-227.127	35.9977	23.1604	
175	1.45833	-229.228	23.8461	58.7495	-210.078	-1.71222	53.0849	-201.059	-17.7209	40.0172	-191.455	-35.3262	31.9632	-202.261	-10.3604	8.81336	-208.646	-35.574	18.2249	-228.25	-20.3935	38.944	-221.044	-17.4405	-1.84362	-233.18	-38.0292	14.113	-244.131	-14.0687	38.2045	-240.326	-17.3525	0.281805	-246.371	-25.2741	25.7527	-250.465	-4.25507	38.1976	-259.386	-13.64	2.03213	-260.616	-14.3528	25.6348	-256.67	9.06843	37.6799	-247.881	33.3949	9.37848	-257.635	47.1095	26.8852	-231.362	41.4502	33.2639	
176	1.46667	-231.325	17.7309	63.681	-216.008	-5.46076	57.9494	-203.916	-19.0627	45.9903	-193.844	-33.3554	33.2839	-197.887	-2.89947	15.0013	-209.954	-29.1935	14.6233	-227.861	-21.416	33.5254	-214.354	-7.66936	-0.316282	-226.104	-31.4001	8.66519	-242.365	-14.1752	35.4676	-235.478	-7.28006	-2.17318	-248.219	-22.2142	16.0755	-250.2	0.786583	36.5004	-249.527	-2.66893	-0.787655	-261.07	-9.54384	21.645	-258.443	9.62353	36.6356	-243.998	40.4884	15.0013	-257.578	51.3911	33.9486	-228.739	41.8993	43.1896	
177	1.475	-236.72	9.3002	72.4096	-223.179	-14.176	60.4091	-211.335	-24.9394	48.5925	-199.288	-35.9087	28.01	-189.358	-4.80316	24.9965	-200.665	-26.3725	13.2923	-225.085	-19.1615	31.8755	-206.63	0.444913	6.49321	-225.084	-25.419	4.01317	-241.857	-12.5044	25.8405	-224.995	-0.732917	0.455995	-244.303	-15.4618	8.90784	-250.542	2.56721	33.7226	-243.517	12.423	-5.04083	-257.437	-4.18205	10.6771	-259.273	10.0349	34.4456	-232.774	44.1254	23.7164	-255.369	54.3231	43.6916	-229.689	39.88	55.6236	
178	1.48333	-242.127	1.65945	72.1834	-229.137	-16.0458	54.9602	-214.174	-32.051	41.4575	-206.133	-38.1944	21.1687	-189.327	-3.15095	34.4716	-191.858	-21.1765	12.4162	-220.954	-20.0173	29.3135	-198.514	-2.38657	10.8019	-219.315	-21.3938	2.26502	-237.972	-10.4958	23.8951	-218.351	6.3604	2.81047	-243.304	-8.4675	4.26645	-248.849	2.04508	30.1682	-236.32	17.1105	-4.04717	-249.226	1.46296	5.2221	-256.501	6.19602	30.8155	-228.829	45.2225	32.6463	-246.034	51.4608	53.713	-228.268	32.4445	65.5491	
179	1.49167	-245.856	-0.258873	70.8289	-232.798	-19.6816	54.6594	-215.824	-26.4503	34.6749	-208.223	-28.2026	15.768	-184.736	-0.534516	33.8966	-182.83	-18.3798	16.6131	-214.089	-18.0372	20.7871	-196.501	3.24484	14.6698	-211.1	-16.2979	-1.38464	-234.934	-7.29117	19.7317	-217.552	13.8038	1.20267	-235.375	-6.00518	1.59913	-247.3	4.27105	27.3584	-233.328	21.0511	-3.33881	-247.627	3.08138	5.32276	-256.99	5.85581	27.3338	-229.441	46.1349	38.6626	-249.487	49.3297	58.0922	-231.495	31.2428	67.3344	
180	1.5	-242.703	0.97877	68.1997	-229.424	-18.2723	51.7612	-208.795	-24.4042	30.5068	-201.837	-19.3252	8.42204	-187.378	7.90743	35.0527	-183.392	-10.6338	13.6809	-210.612	-16.8135	24.7546	-193.536	5.58667	11.9588	-210.587	-13.9613	-0.860311	-231.2	-5.47229	22.1302	-214.766	13.8297	-1.90729	-229.949	-5.46484	0.573505	-244.916	4.77017	25.8288	-230.011	21.2855	-0.88427	-244.164	3.87648	3.04163	-254.979	2.86357	25.4934	-226.581	44.8988	41.1182	-246.397	52.9108	55.7561	-232.406	32.7231	64.1419	
181	1.50833	-240.051	3.82194	65.7512	-221.738	-16.9771	48.1586	-207.55	-21.3359	31.8349	-196.754	-16.9805	8.32673	-180.692	10.518	33.9012	-178.393	-4.78628	14.6121	-208.016	-12.7334	27.7238	-193.031	12.8602	11.4703	-203.417	-10.113	-1.29126	-228.853	-1.08593	22.5102	-214.43	20.769	0.458041	-231.422	-3.53375	2.17899	-242.015	4.67249	23.6229	-232.14	28.2554	-3.32078	-241.201	3.76343	4.85929	-253.857	3.0973	26.5105	-228.039	47.8414	40.036	-252.303	52.9821	55.5671	-228.126	35.6369	61.7975	
182	1.51667	-241.182	5.47162	66.1353	-220.208	-13.7114	47.1903	-203.015	-17.9831	29.1438	-194.211	-15.896	9.46049	-181.443	15.1409	35.5881	-174.977	-1.78001	14.863	-205.502	-9.28625	25.7776	-190.123	15.6507	11.885	-205.997	-7.01122	-1.5991	-225.627	-0.63887	18.8455	-209.509	16.9798	1.25722	-227.758	-1.31301	1.90752	-241.335	10.5155	25.6578	-229.239	26.2294	-3.68148	-242.979	7.86448	-0.250014	-251.925	6.55591	26.2453	-229.924	50.6804	37.1673	-251.875	53.6901	56.232	-229.806	36.7767	63.491	
183	1.525	-236.362	9.60597	65.4858	-216.428	-10.7243	48.0042	-199.751	-14.1063	31.185	-192.145	-6.91778	8.80083	-178.803	22.0699	31.6514	-174.615	-1.35223	15.084	-200.003	-7.38112	26.404	-190.856	22.4432	10.6393	-203.287	-4.69412	-1.05126	-222.141	3.62844	23.1037	-209.472	22.2222	0.0826897	-226.975	0.463434	0.690359	-236.982	8.93599	24.2611	-228.681	29.1177	-4.58939	-237.203	6.63615	4.48137	-246.483	3.36802	26.1192	-230.242	51.5375	38.9103	-252.344	57.6385	52.1466	-230.581	41.0041	62.9621	
